<svg xmlns="http://www.w3.org/2000/svg" xmlns:xlink="http://www.w3.org/1999/xlink" width="40" height="40" viewBox="0 0 40 40">
  <defs>
    <clipPath id="clip-path">
      <rect id="Rectángulo_18" data-name="Rectángulo 18" width="40" height="40" fill="#fff" stroke="#707070" stroke-width="1"/>
    </clipPath>
  </defs>
  <g id="AC" clip-path="url(#clip-path)">
    <g id="air-conditioner-svgrepo-com" transform="translate(0.175 6.012)">
      <g id="Grupo_36" data-name="Grupo 36">
        <g id="Grupo_35" data-name="Grupo 35">
          <path id="Trazado_3" data-name="Trazado 3" d="M36.548,8.276H3.452A3.457,3.457,0,0,0,0,11.731v9.642a3.457,3.457,0,0,0,3.452,3.455h33.1A3.457,3.457,0,0,0,40,21.373V11.731A3.457,3.457,0,0,0,36.548,8.276Zm2.072,13.1a2.077,2.077,0,0,1-2.072,2.076H3.452a2.077,2.077,0,0,1-2.072-2.076V11.731A2.077,2.077,0,0,1,3.452,9.655h33.1a2.077,2.077,0,0,1,2.072,2.076Z" transform="translate(0 -8.276)" fill="#7f8386"/>
          <path id="Trazado_4" data-name="Trazado 4" d="M42.557,40.2a.689.689,0,0,0-.975,0L40.4,41.38h-.531a2.065,2.065,0,0,0-1.252-1.252V39.6L39.8,38.419a.69.69,0,1,0-.975-.975l-.892.892-.892-.892a.69.69,0,0,0-.975.975L37.242,39.6v.531A2.065,2.065,0,0,0,35.99,41.38h-.531L34.281,40.2a.69.69,0,0,0-.975.975l.892.892-.892.892a.689.689,0,1,0,.975.975l1.177-1.177h.531a2.065,2.065,0,0,0,1.252,1.252v.531l-1.177,1.177a.69.69,0,0,0,.975.975l.892-.892.892.892a.69.69,0,0,0,.975-.975l-1.177-1.177v-.531a2.065,2.065,0,0,0,1.252-1.252H40.4l1.177,1.177a.69.69,0,0,0,.975-.975l-.892-.892.892-.892A.689.689,0,0,0,42.557,40.2Zm-4.625,2.556a.69.69,0,1,1,.69-.69A.69.69,0,0,1,37.931,42.759Z" transform="translate(-11.035 -17.931)" fill="#7f8386"/>
          <path id="Trazado_5" data-name="Trazado 5" d="M20.833,40.2a.689.689,0,0,0-.975,0L18.68,41.38h-.531A2.065,2.065,0,0,0,16.9,40.128V39.6l1.177-1.177a.69.69,0,0,0-.975-.975l-.892.892-.892-.892a.69.69,0,0,0-.975.975L15.518,39.6v.531a2.065,2.065,0,0,0-1.252,1.252h-.531L12.557,40.2a.69.69,0,1,0-.975.975l.892.892-.892.892a.689.689,0,1,0,.975.975l1.177-1.177h.531a2.065,2.065,0,0,0,1.252,1.252v.531L14.34,45.719a.69.69,0,0,0,.975.975l.892-.892.892.892a.69.69,0,0,0,.975-.975L16.9,44.542v-.531a2.065,2.065,0,0,0,1.252-1.252h.531l1.177,1.177a.69.69,0,0,0,.975-.975l-.892-.892.892-.892A.689.689,0,0,0,20.833,40.2Zm-4.625,2.556a.69.69,0,1,1,.69-.69A.69.69,0,0,1,16.207,42.759Z" transform="translate(-3.793 -17.931)" fill="#7f8386"/>
          <rect id="Rectángulo_19" data-name="Rectángulo 19" width="25.527" height="1.379" transform="translate(6.897 11.724)" fill="#7f8386"/>
          <rect id="Rectángulo_20" data-name="Rectángulo 20" width="31.724" height="1.379" transform="translate(4.138 9.655)" fill="#7f8386"/>
        </g>
      </g>
    </g>
  </g>
</svg>
