<svg xmlns="http://www.w3.org/2000/svg" xmlns:xlink="http://www.w3.org/1999/xlink" width="40" height="41" viewBox="0 0 40 41">
  <defs>
    <clipPath id="clip-path">
      <rect id="Rectángulo_21" data-name="Rectángulo 21" width="40" height="41" fill="#fff" stroke="#707070" stroke-width="1"/>
    </clipPath>
  </defs>
  <g id="mainenceAC" clip-path="url(#clip-path)">
    <path id="tool-equipment-svgrepo-com" d="M29.982,25.16a2,2,0,0,0-2.873,0l-.029.029-.564-.578L32.1,18.885a7.932,7.932,0,0,0,8.127-2.066,8.46,8.46,0,0,0,2.248-7.38.442.442,0,0,0-.3-.345.428.428,0,0,0-.437.111l-3.893,3.99-4.8-.787-.768-4.919L36.174,3.5a.454.454,0,0,0,.108-.448.438.438,0,0,0-.337-.306,8,8,0,0,0-7.2,2.3,8.414,8.414,0,0,0-2.015,8.33L21.143,19.1,9.487,7.157a.435.435,0,0,0-.155-.1L6.412,5.934a.428.428,0,0,0-.46.1.453.453,0,0,0-.1.471L6.946,9.5a.445.445,0,0,0,.1.159L18.7,21.607l-5.587,5.726A7.931,7.931,0,0,0,4.989,29.4a8.459,8.459,0,0,0-2.248,7.38.442.442,0,0,0,.3.345.425.425,0,0,0,.437-.111l3.893-3.99,4.8.787.768,4.919L9.043,42.72a.454.454,0,0,0-.108.448.438.438,0,0,0,.337.306,7.936,7.936,0,0,0,1.456.135,8.024,8.024,0,0,0,5.744-2.439,8.413,8.413,0,0,0,2.015-8.33l5.586-5.726.564.578-.029.029a2.122,2.122,0,0,0,0,2.945l10.538,10.8a2,2,0,0,0,2.868-.005l2.5-2.562a2.118,2.118,0,0,0,0-2.94Zm-1.42,8.3.844-.865,3.86,3.956-.844.865Zm3.527-4.876-1.151,1.18L29.1,31.647l-1.151,1.18-1.225-1.256,4.142-4.245Zm-.843,2.125,3.86,3.956L33.88,35.918l-3.86-3.956Zm1.791,7.337,1.151-1.18,1.84-1.886,1.151-1.18L38.4,35.054,34.262,39.3Zm2.683-4.011-3.86-3.956.844-.865,3.86,3.956ZM27.533,13.816a.454.454,0,0,0,.1-.46A7.521,7.521,0,0,1,29.36,5.678a7.158,7.158,0,0,1,5.569-2.164l-3.419,3.5a.452.452,0,0,0-.122.385l.853,5.462a.44.44,0,0,0,.36.369l5.329.874a.429.429,0,0,0,.376-.125l3.419-3.5a7.539,7.539,0,0,1-2.111,5.708,7.083,7.083,0,0,1-7.49,1.766.424.424,0,0,0-.449.107L25.9,23.98l-1.227-1.258,4.455-4.566a1.247,1.247,0,0,0,0-1.731,1.2,1.2,0,0,0-1.689,0l-4.455,4.566-1.227-1.258ZM23.6,21.623l4.455-4.566a.327.327,0,0,1,.459,0,.338.338,0,0,1,0,.47h0l-4.455,4.567ZM17.684,32.4a.454.454,0,0,0-.1.46,7.52,7.52,0,0,1-1.723,7.677A7.153,7.153,0,0,1,10.289,42.7l3.419-3.5a.452.452,0,0,0,.122-.385l-.853-5.462a.44.44,0,0,0-.36-.369l-5.329-.875a.424.424,0,0,0-.376.125l-3.419,3.5A7.538,7.538,0,0,1,5.6,30.028a7.085,7.085,0,0,1,7.49-1.766.429.429,0,0,0,.449-.107l5.775-5.919,1.227,1.258L16.089,28.06a1.247,1.247,0,0,0,0,1.731,1.174,1.174,0,0,0,1.689,0l4.455-4.566,1.227,1.258ZM21.617,24.6l-4.455,4.567a.327.327,0,0,1-.459,0,.339.339,0,0,1,0-.47l4.455-4.567Zm2.764,1.573L22.54,24.28l-1.074-1.1-1.842-1.888L7.727,9.1,7,7.112l1.937.744,11.9,12.194,1.842,1.888,1.074,1.1,1.842,1.888.872.894-1.212,1.242Zm.843,2.184.336-.344,1.827-1.872.336-.344a1.144,1.144,0,0,1,1.643,0l.883.905-4.143,4.246-.883-.905A1.215,1.215,0,0,1,25.224,28.351ZM39.9,38.271l-2.5,2.562a1.144,1.144,0,0,1-.82.35,1.123,1.123,0,0,1-.818-.345l-.886-.908,4.142-4.246.886.908a1.188,1.188,0,0,1,.337.838A1.2,1.2,0,0,1,39.9,38.271Z" transform="translate(-2.433 -2.606)" fill="#7f8386"/>
  </g>
</svg>
