<svg xmlns="http://www.w3.org/2000/svg" xmlns:xlink="http://www.w3.org/1999/xlink" width="40" height="40" viewBox="0 0 40 40">
  <defs>
    <clipPath id="clip-path">
      <rect id="Rectángulo_21" data-name="Rectángulo 21" width="40" height="40" fill="#fff" stroke="#707070" stroke-width="1"/>
    </clipPath>
  </defs>
  <g id="refilAC" clip-path="url(#clip-path)">
    <g id="hair-spray-svgrepo-com" transform="translate(9.868 0.003)">
      <path id="Trazado_6" data-name="Trazado 6" d="M25.389,14.625V10.853a.841.841,0,0,0-.841-.841h-.889V5.952a.841.841,0,0,0-.841-.841h-3a.841.841,0,0,0-.841.841v4.061h-.889a.841.841,0,0,0-.841.841v3.771A6.5,6.5,0,0,0,14.8,19.7v20a2,2,0,0,0,2,2h9.037a2,2,0,0,0,2-2v-20A6.5,6.5,0,0,0,25.389,14.625ZM20.655,6.793h1.323v3.22H20.655V6.793Zm-1.73,4.9h4.782v1.952a6.489,6.489,0,0,0-4.782,0V11.694ZM26.15,32.476H20.373V23.314H26.15Zm0-10.422H19.743a.63.63,0,0,0-.63.63V33.106a.63.63,0,0,0,.63.63H26.15v5.972a.315.315,0,0,1-.315.315H16.8a.315.315,0,0,1-.315-.315v-20a4.833,4.833,0,0,1,9.666,0v2.349Z" transform="translate(-14.802 -1.704)" fill="#7f8386"/>
      <path id="Trazado_7" data-name="Trazado 7" d="M39.642,8.184a.63.63,0,0,0,.14-1.245l-5.9-1.349,5.9-1.349A.63.63,0,1,0,39.5,3.012l-4.509,1.03,4.964-2.866a.63.63,0,0,0-.63-1.092l-8.59,4.959a.63.63,0,0,0,0,1.092l8.59,4.959A.63.63,0,1,0,39.957,10L34.992,7.137,39.5,8.168a.636.636,0,0,0,.141.016Z" transform="translate(-20.009 0)" fill="#7f8386"/>
    </g>
  </g>
</svg>
