<svg xmlns="http://www.w3.org/2000/svg" xmlns:xlink="http://www.w3.org/1999/xlink" width="40" height="40" viewBox="0 0 40 40">
  <defs>
    <clipPath id="clip-path">
      <rect id="Rectángulo_21" data-name="Rectángulo 21" width="40" height="40" fill="#fff" stroke="#707070" stroke-width="1"/>
    </clipPath>
  </defs>
  <g id="replaceAC" clip-path="url(#clip-path)">
    <path id="air-conditioner-svgrepo-com" d="M38.184,37.233H1.816A1.818,1.818,0,0,1,0,35.418v-25.3A1.818,1.818,0,0,1,1.816,8.3H38.184A1.818,1.818,0,0,1,40,10.116v25.3A1.818,1.818,0,0,1,38.184,37.233ZM1.816,9.43a.687.687,0,0,0-.686.686v25.3a.687.687,0,0,0,.686.686H38.184a.687.687,0,0,0,.686-.686v-25.3a.687.687,0,0,0-.686-.686H1.816ZM35.746,32.2H25.878a.565.565,0,0,1,0-1.13h9.868a.565.565,0,1,1,0,1.13Zm-22.622,0a9.435,9.435,0,1,1,9.435-9.435A9.446,9.446,0,0,1,13.124,32.2Zm0-17.74a8.305,8.305,0,1,0,8.305,8.305A8.314,8.314,0,0,0,13.124,14.462Zm2.491,15.4H15.6a3.233,3.233,0,0,1-2.5-1.26,5.451,5.451,0,0,1-.727-3.792,2.172,2.172,0,0,1-.556-.3,2.006,2.006,0,0,0-1.18.649,1.361,1.361,0,0,0-.336.956A1.894,1.894,0,0,1,9.6,27.617a1.954,1.954,0,0,1-1.65.4,3.188,3.188,0,0,1-1.991-1.94c-.977-2.013-.762-3.348-.41-4.115A3.234,3.234,0,0,1,7.737,20.2c1.494-.393,3.278.607,3.888.992a2.192,2.192,0,0,1,.41-.308v0a1.963,1.963,0,0,0,.011-1.416,1.365,1.365,0,0,0-.685-.747A1.894,1.894,0,0,1,10.357,17.4a1.952,1.952,0,0,1,.426-1.643,3.185,3.185,0,0,1,2.649-.844c2.236.085,3.313.9,3.823,1.574a3.232,3.232,0,0,1,.524,2.754A5.464,5.464,0,0,1,15.2,22.127a2.172,2.172,0,0,1,.1.639,2.2,2.2,0,0,1-.016.266l0,.008a1.961,1.961,0,0,0,1.117.87,1.361,1.361,0,0,0,1.01-.089,1.894,1.894,0,0,1,1.662.007,1.952,1.952,0,0,1,1.044,1.338,3.187,3.187,0,0,1-.942,2.616C17.757,29.5,16.458,29.859,15.615,29.859ZM13.5,24.91a4.55,4.55,0,0,0,.476,2.975,2.157,2.157,0,0,0,1.634.844h.008a3.8,3.8,0,0,0,2.693-1.668,2.253,2.253,0,0,0,.705-1.667.831.831,0,0,0-.452-.559c-.248-.127-.389-.086-.762.049a2.464,2.464,0,0,1-1.737.1,3.164,3.164,0,0,1-1.3-.794A2.174,2.174,0,0,1,13.5,24.91ZM8.464,21.24a1.724,1.724,0,0,0-.439.053A2.157,2.157,0,0,0,6.58,22.431a3.793,3.793,0,0,0,.4,3.149c.37.763.805,1.236,1.225,1.332a.829.829,0,0,0,.7-.18c.218-.173.24-.318.271-.714A2.461,2.461,0,0,1,9.8,24.394a3.164,3.164,0,0,1,1.29-.864,2.177,2.177,0,0,1-.051-1.373A5.63,5.63,0,0,0,8.464,21.24Zm4.661.481a1.045,1.045,0,1,0,1.045,1.045A1.046,1.046,0,0,0,13.124,21.722ZM13.27,20.6a2.167,2.167,0,0,1,1.331.574c.671-.4,1.861-1.273,2.08-2.193a2.157,2.157,0,0,0-.325-1.81,3.8,3.8,0,0,0-2.967-1.129,2.251,2.251,0,0,0-1.752.454.831.831,0,0,0-.169.7c.05.273.168.361.5.574a2.464,2.464,0,0,1,1.14,1.316A3.17,3.17,0,0,1,13.27,20.6Zm22.476,8.057H25.878a.565.565,0,0,1,0-1.13h9.868a.565.565,0,0,1,0,1.13Zm0-3.548H25.878a.565.565,0,0,1,0-1.13h9.868a.565.565,0,0,1,0,1.13Zm0-3.548H25.878a.565.565,0,0,1,0-1.13h9.868a.565.565,0,1,1,0,1.13Zm0-3.548H25.878a.565.565,0,0,1,0-1.13h9.868a.565.565,0,0,1,0,1.13Zm0-3.548H25.878a.565.565,0,0,1,0-1.13h9.868a.565.565,0,0,1,0,1.13Z" transform="translate(0 -2.272)" fill="#7f8386"/>
  </g>
</svg>
